<svg width="147" height="50" viewBox="0 0 147 50" fill="none" xmlns="http://www.w3.org/2000/svg">
<rect width="50" height="50" rx="4" fill="#F26522"/>
<path fill-rule="evenodd" clip-rule="evenodd" d="M12.0945 14.4568C12.0945 13.0735 13.3112 11.9568 14.6945 12.1068C26.9445 13.3235 36.6779 23.0735 37.8945 35.3068C38.0279 36.6902 36.9279 37.9068 35.5279 37.9068C34.3112 37.9068 33.3112 36.9902 33.1945 35.7735C32.1945 25.7568 24.2279 17.7901 14.2112 16.7901C13.0112 16.6734 12.0945 15.6735 12.0945 14.4568ZM14.7446 21.6234C13.3445 21.3901 12.0945 22.5402 12.0945 23.9568C12.0945 25.1402 12.9779 26.0902 14.1445 26.2902C19.0113 27.1402 22.8445 30.9902 23.7112 35.8568C23.9112 37.0235 24.8612 37.9068 26.0445 37.9068C27.4612 37.9068 28.6112 36.6568 28.3945 35.2568C27.2612 28.2568 21.7445 22.7402 14.7446 21.6234ZM15.7279 30.6402C13.7212 30.6402 12.0945 32.2668 12.0945 34.2735C12.0945 36.28 13.7212 37.9068 15.7279 37.9068C17.7345 37.9068 19.3612 36.28 19.3612 34.2735C19.3612 32.2668 17.7345 30.6402 15.7279 30.6402Z" fill="white"/>
<path d="M66.16 10.91C66.1 11.01 66.0333 11.0867 65.96 11.14C65.8933 11.1867 65.81 11.21 65.71 11.21C65.5967 11.21 65.4633 11.1533 65.31 11.04C65.1567 10.9267 64.9633 10.8033 64.73 10.67C64.5033 10.53 64.2267 10.4033 63.9 10.29C63.58 10.1767 63.19 10.12 62.73 10.12C62.2967 10.12 61.9133 10.18 61.58 10.3C61.2533 10.4133 60.9767 10.57 60.75 10.77C60.53 10.97 60.3633 11.2067 60.25 11.48C60.1367 11.7467 60.08 12.0367 60.08 12.35C60.08 12.75 60.1767 13.0833 60.37 13.35C60.57 13.61 60.83 13.8333 61.15 14.02C61.4767 14.2067 61.8433 14.37 62.25 14.51C62.6633 14.6433 63.0833 14.7833 63.51 14.93C63.9433 15.0767 64.3633 15.2433 64.77 15.43C65.1833 15.61 65.55 15.84 65.87 16.12C66.1967 16.4 66.4567 16.7433 66.65 17.15C66.85 17.5567 66.95 18.0567 66.95 18.65C66.95 19.2767 66.8433 19.8667 66.63 20.42C66.4167 20.9667 66.1033 21.4433 65.69 21.85C65.2833 22.2567 64.78 22.5767 64.18 22.81C63.5867 23.0433 62.91 23.16 62.15 23.16C61.2167 23.16 60.37 22.9933 59.61 22.66C58.85 22.32 58.2 21.8633 57.66 21.29L58.22 20.37C58.2733 20.2967 58.3367 20.2367 58.41 20.19C58.49 20.1367 58.5767 20.11 58.67 20.11C58.7567 20.11 58.8533 20.1467 58.96 20.22C59.0733 20.2867 59.2 20.3733 59.34 20.48C59.48 20.5867 59.64 20.7033 59.82 20.83C60 20.9567 60.2033 21.0733 60.43 21.18C60.6633 21.2867 60.9267 21.3767 61.22 21.45C61.5133 21.5167 61.8433 21.55 62.21 21.55C62.67 21.55 63.08 21.4867 63.44 21.36C63.8 21.2333 64.1033 21.0567 64.35 20.83C64.6033 20.5967 64.7967 20.32 64.93 20C65.0633 19.68 65.13 19.3233 65.13 18.93C65.13 18.4967 65.03 18.1433 64.83 17.87C64.6367 17.59 64.38 17.3567 64.06 17.17C63.74 16.9833 63.3733 16.8267 62.96 16.7C62.5467 16.5667 62.1267 16.4333 61.7 16.3C61.2733 16.16 60.8533 16 60.44 15.82C60.0267 15.64 59.66 15.4067 59.34 15.12C59.02 14.8333 58.76 14.4767 58.56 14.05C58.3667 13.6167 58.27 13.0833 58.27 12.45C58.27 11.9433 58.3667 11.4533 58.56 10.98C58.76 10.5067 59.0467 10.0867 59.42 9.72C59.8 9.35333 60.2633 9.06 60.81 8.84C61.3633 8.62 61.9967 8.51 62.71 8.51C63.51 8.51 64.2367 8.63667 64.89 8.89C65.55 9.14333 66.13 9.51 66.63 9.99L66.16 10.91ZM77.4041 12.87V23H76.3441C76.0907 23 75.9307 22.8767 75.8641 22.63L75.7241 21.54C75.2841 22.0267 74.7907 22.42 74.2441 22.72C73.6974 23.0133 73.0707 23.16 72.3641 23.16C71.8107 23.16 71.3207 23.07 70.8941 22.89C70.4741 22.7033 70.1207 22.4433 69.8341 22.11C69.5474 21.7767 69.3307 21.3733 69.1841 20.9C69.0441 20.4267 68.9741 19.9033 68.9741 19.33V12.87H70.7541V19.33C70.7541 20.0967 70.9274 20.69 71.2741 21.11C71.6274 21.53 72.1641 21.74 72.8841 21.74C73.4107 21.74 73.9007 21.6167 74.3541 21.37C74.8141 21.1167 75.2374 20.77 75.6241 20.33V12.87H77.4041ZM82.0164 20.56C82.3431 21 82.6997 21.31 83.0864 21.49C83.4797 21.67 83.9097 21.76 84.3764 21.76C85.3297 21.76 86.0597 21.4233 86.5664 20.75C87.0731 20.0767 87.3264 19.0733 87.3264 17.74C87.3264 16.5 87.0997 15.59 86.6464 15.01C86.1997 14.4233 85.5597 14.13 84.7264 14.13C84.1464 14.13 83.6397 14.2633 83.2064 14.53C82.7797 14.7967 82.3831 15.1733 82.0164 15.66V20.56ZM82.0164 14.33C82.4431 13.8367 82.9231 13.4433 83.4564 13.15C83.9964 12.8567 84.6164 12.71 85.3164 12.71C85.9097 12.71 86.4431 12.8233 86.9164 13.05C87.3964 13.2767 87.8031 13.6067 88.1364 14.04C88.4697 14.4667 88.7231 14.9867 88.8964 15.6C89.0764 16.2133 89.1664 16.9033 89.1664 17.67C89.1664 18.49 89.0664 19.2367 88.8664 19.91C88.6664 20.5833 88.3764 21.16 87.9964 21.64C87.6231 22.1133 87.1664 22.4833 86.6264 22.75C86.0864 23.01 85.4797 23.14 84.8064 23.14C84.1397 23.14 83.5764 23.0167 83.1164 22.77C82.6631 22.5167 82.2664 22.16 81.9264 21.7L81.8364 22.62C81.7831 22.8733 81.6297 23 81.3764 23H80.2264V8.27H82.0164V14.33ZM97.3178 14.54C97.2378 14.6867 97.1145 14.76 96.9478 14.76C96.8478 14.76 96.7345 14.7233 96.6078 14.65C96.4811 14.5767 96.3245 14.4967 96.1378 14.41C95.9578 14.3167 95.7411 14.2333 95.4878 14.16C95.2345 14.08 94.9345 14.04 94.5878 14.04C94.2878 14.04 94.0178 14.08 93.7778 14.16C93.5378 14.2333 93.3311 14.3367 93.1578 14.47C92.9911 14.6033 92.8611 14.76 92.7678 14.94C92.6811 15.1133 92.6378 15.3033 92.6378 15.51C92.6378 15.77 92.7111 15.9867 92.8578 16.16C93.0111 16.3333 93.2111 16.4833 93.4578 16.61C93.7045 16.7367 93.9845 16.85 94.2978 16.95C94.6111 17.0433 94.9311 17.1467 95.2578 17.26C95.5911 17.3667 95.9145 17.4867 96.2278 17.62C96.5411 17.7533 96.8211 17.92 97.0678 18.12C97.3145 18.32 97.5111 18.5667 97.6578 18.86C97.8111 19.1467 97.8878 19.4933 97.8878 19.9C97.8878 20.3667 97.8045 20.8 97.6378 21.2C97.4711 21.5933 97.2245 21.9367 96.8978 22.23C96.5711 22.5167 96.1711 22.7433 95.6978 22.91C95.2245 23.0767 94.6778 23.16 94.0578 23.16C93.3511 23.16 92.7111 23.0467 92.1378 22.82C91.5645 22.5867 91.0778 22.29 90.6778 21.93L91.0978 21.25C91.1511 21.1633 91.2145 21.0967 91.2878 21.05C91.3611 21.0033 91.4545 20.98 91.5678 20.98C91.6878 20.98 91.8145 21.0267 91.9478 21.12C92.0811 21.2133 92.2411 21.3167 92.4278 21.43C92.6211 21.5433 92.8545 21.6467 93.1278 21.74C93.4011 21.8333 93.7411 21.88 94.1478 21.88C94.4945 21.88 94.7978 21.8367 95.0578 21.75C95.3178 21.6567 95.5345 21.5333 95.7078 21.38C95.8811 21.2267 96.0078 21.05 96.0878 20.85C96.1745 20.65 96.2178 20.4367 96.2178 20.21C96.2178 19.93 96.1411 19.7 95.9878 19.52C95.8411 19.3333 95.6445 19.1767 95.3978 19.05C95.1511 18.9167 94.8678 18.8033 94.5478 18.71C94.2345 18.61 93.9111 18.5067 93.5778 18.4C93.2511 18.2933 92.9278 18.1733 92.6078 18.04C92.2945 17.9 92.0145 17.7267 91.7678 17.52C91.5211 17.3133 91.3211 17.06 91.1678 16.76C91.0211 16.4533 90.9478 16.0833 90.9478 15.65C90.9478 15.2633 91.0278 14.8933 91.1878 14.54C91.3478 14.18 91.5811 13.8667 91.8878 13.6C92.1945 13.3267 92.5711 13.11 93.0178 12.95C93.4645 12.79 93.9745 12.71 94.5478 12.71C95.2145 12.71 95.8111 12.8167 96.3378 13.03C96.8711 13.2367 97.3311 13.5233 97.7178 13.89L97.3178 14.54ZM107.12 14.67C107.067 14.7433 107.013 14.8 106.96 14.84C106.907 14.88 106.833 14.9 106.74 14.9C106.64 14.9 106.53 14.86 106.41 14.78C106.29 14.6933 106.14 14.6 105.96 14.5C105.787 14.4 105.57 14.31 105.31 14.23C105.057 14.1433 104.743 14.1 104.37 14.1C103.87 14.1 103.43 14.19 103.05 14.37C102.67 14.5433 102.35 14.7967 102.09 15.13C101.837 15.4633 101.643 15.8667 101.51 16.34C101.383 16.8133 101.32 17.3433 101.32 17.93C101.32 18.5433 101.39 19.09 101.53 19.57C101.67 20.0433 101.867 20.4433 102.12 20.77C102.38 21.09 102.69 21.3367 103.05 21.51C103.417 21.6767 103.827 21.76 104.28 21.76C104.713 21.76 105.07 21.71 105.35 21.61C105.63 21.5033 105.86 21.3867 106.04 21.26C106.227 21.1333 106.38 21.02 106.5 20.92C106.627 20.8133 106.75 20.76 106.87 20.76C107.017 20.76 107.13 20.8167 107.21 20.93L107.71 21.58C107.49 21.8533 107.24 22.0867 106.96 22.28C106.68 22.4733 106.377 22.6367 106.05 22.77C105.73 22.8967 105.393 22.99 105.04 23.05C104.687 23.11 104.327 23.14 103.96 23.14C103.327 23.14 102.737 23.0233 102.19 22.79C101.65 22.5567 101.18 22.22 100.78 21.78C100.38 21.3333 100.067 20.7867 99.8402 20.14C99.6135 19.4933 99.5002 18.7567 99.5002 17.93C99.5002 17.1767 99.6035 16.48 99.8102 15.84C100.023 15.2 100.33 14.65 100.73 14.19C101.137 13.7233 101.633 13.36 102.22 13.1C102.813 12.84 103.493 12.71 104.26 12.71C104.973 12.71 105.6 12.8267 106.14 13.06C106.687 13.2867 107.17 13.61 107.59 14.03L107.12 14.67ZM111.311 14.9C111.631 14.2067 112.024 13.6667 112.491 13.28C112.958 12.8867 113.528 12.69 114.201 12.69C114.414 12.69 114.618 12.7133 114.811 12.76C115.011 12.8067 115.188 12.88 115.341 12.98L115.211 14.31C115.171 14.4767 115.071 14.56 114.911 14.56C114.818 14.56 114.681 14.54 114.501 14.5C114.321 14.46 114.118 14.44 113.891 14.44C113.571 14.44 113.284 14.4867 113.031 14.58C112.784 14.6733 112.561 14.8133 112.361 15C112.168 15.18 111.991 15.4067 111.831 15.68C111.678 15.9467 111.538 16.2533 111.411 16.6V23H109.621V12.87H110.641C110.834 12.87 110.968 12.9067 111.041 12.98C111.114 13.0533 111.164 13.18 111.191 13.36L111.311 14.9ZM118.786 12.87V23H117.006V12.87H118.786ZM119.166 9.69C119.166 9.86333 119.129 10.0267 119.056 10.18C118.989 10.3267 118.896 10.46 118.776 10.58C118.663 10.6933 118.526 10.7833 118.366 10.85C118.213 10.9167 118.049 10.95 117.876 10.95C117.703 10.95 117.539 10.9167 117.386 10.85C117.239 10.7833 117.109 10.6933 116.996 10.58C116.883 10.46 116.793 10.3267 116.726 10.18C116.659 10.0267 116.626 9.86333 116.626 9.69C116.626 9.51667 116.659 9.35333 116.726 9.2C116.793 9.04 116.883 8.90333 116.996 8.79C117.109 8.67 117.239 8.57667 117.386 8.51C117.539 8.44333 117.703 8.41 117.876 8.41C118.049 8.41 118.213 8.44333 118.366 8.51C118.526 8.57667 118.663 8.67 118.776 8.79C118.896 8.90333 118.989 9.04 119.056 9.2C119.129 9.35333 119.166 9.51667 119.166 9.69ZM123.501 20.56C123.827 21 124.184 21.31 124.571 21.49C124.964 21.67 125.394 21.76 125.861 21.76C126.814 21.76 127.544 21.4233 128.051 20.75C128.557 20.0767 128.811 19.0733 128.811 17.74C128.811 16.5 128.584 15.59 128.131 15.01C127.684 14.4233 127.044 14.13 126.211 14.13C125.631 14.13 125.124 14.2633 124.691 14.53C124.264 14.7967 123.867 15.1733 123.501 15.66V20.56ZM123.501 14.33C123.927 13.8367 124.407 13.4433 124.941 13.15C125.481 12.8567 126.101 12.71 126.801 12.71C127.394 12.71 127.927 12.8233 128.401 13.05C128.881 13.2767 129.287 13.6067 129.621 14.04C129.954 14.4667 130.207 14.9867 130.381 15.6C130.561 16.2133 130.651 16.9033 130.651 17.67C130.651 18.49 130.551 19.2367 130.351 19.91C130.151 20.5833 129.861 21.16 129.481 21.64C129.107 22.1133 128.651 22.4833 128.111 22.75C127.571 23.01 126.964 23.14 126.291 23.14C125.624 23.14 125.061 23.0167 124.601 22.77C124.147 22.5167 123.751 22.16 123.411 21.7L123.321 22.62C123.267 22.8733 123.114 23 122.861 23H121.711V8.27H123.501V14.33ZM139.682 16.83C139.682 16.4167 139.622 16.04 139.502 15.7C139.389 15.3533 139.219 15.0567 138.992 14.81C138.772 14.5567 138.502 14.3633 138.182 14.23C137.862 14.09 137.499 14.02 137.092 14.02C136.239 14.02 135.562 14.27 135.062 14.77C134.569 15.2633 134.262 15.95 134.142 16.83H139.682ZM141.122 21.58C140.902 21.8467 140.639 22.08 140.332 22.28C140.026 22.4733 139.696 22.6333 139.342 22.76C138.996 22.8867 138.636 22.98 138.262 23.04C137.889 23.1067 137.519 23.14 137.152 23.14C136.452 23.14 135.806 23.0233 135.212 22.79C134.626 22.55 134.116 22.2033 133.682 21.75C133.256 21.29 132.922 20.7233 132.682 20.05C132.442 19.3767 132.322 18.6033 132.322 17.73C132.322 17.0233 132.429 16.3633 132.642 15.75C132.862 15.1367 133.176 14.6067 133.582 14.16C133.989 13.7067 134.486 13.3533 135.072 13.1C135.659 12.84 136.319 12.71 137.052 12.71C137.659 12.71 138.219 12.8133 138.732 13.02C139.252 13.22 139.699 13.5133 140.072 13.9C140.452 14.28 140.749 14.7533 140.962 15.32C141.176 15.88 141.282 16.52 141.282 17.24C141.282 17.52 141.252 17.7067 141.192 17.8C141.132 17.8933 141.019 17.94 140.852 17.94H134.082C134.102 18.58 134.189 19.1367 134.342 19.61C134.502 20.0833 134.722 20.48 135.002 20.8C135.282 21.1133 135.616 21.35 136.002 21.51C136.389 21.6633 136.822 21.74 137.302 21.74C137.749 21.74 138.132 21.69 138.452 21.59C138.779 21.4833 139.059 21.37 139.292 21.25C139.526 21.13 139.719 21.02 139.872 20.92C140.032 20.8133 140.169 20.76 140.282 20.76C140.429 20.76 140.542 20.8167 140.622 20.93L141.122 21.58Z" fill="black"/>
<path d="M60.408 33.826C60.852 33.826 61.252 33.9 61.608 34.048C61.964 34.196 62.268 34.406 62.52 34.678C62.772 34.95 62.964 35.28 63.096 35.668C63.232 36.052 63.3 36.482 63.3 36.958C63.3 37.438 63.232 37.87 63.096 38.254C62.964 38.638 62.772 38.966 62.52 39.238C62.268 39.51 61.964 39.72 61.608 39.868C61.252 40.012 60.852 40.084 60.408 40.084C59.96 40.084 59.556 40.012 59.196 39.868C58.84 39.72 58.536 39.51 58.284 39.238C58.032 38.966 57.838 38.638 57.702 38.254C57.57 37.87 57.504 37.438 57.504 36.958C57.504 36.482 57.57 36.052 57.702 35.668C57.838 35.28 58.032 34.95 58.284 34.678C58.536 34.406 58.84 34.196 59.196 34.048C59.556 33.9 59.96 33.826 60.408 33.826ZM60.408 39.25C61.008 39.25 61.456 39.05 61.752 38.65C62.048 38.246 62.196 37.684 62.196 36.964C62.196 36.24 62.048 35.676 61.752 35.272C61.456 34.868 61.008 34.666 60.408 34.666C60.104 34.666 59.838 34.718 59.61 34.822C59.386 34.926 59.198 35.076 59.046 35.272C58.898 35.468 58.786 35.71 58.71 35.998C58.638 36.282 58.602 36.604 58.602 36.964C58.602 37.684 58.75 38.246 59.046 38.65C59.346 39.05 59.8 39.25 60.408 39.25ZM65.6626 34.804C65.7946 34.656 65.9346 34.522 66.0826 34.402C66.2306 34.282 66.3866 34.18 66.5506 34.096C66.7186 34.008 66.8946 33.942 67.0786 33.898C67.2666 33.85 67.4686 33.826 67.6846 33.826C68.0166 33.826 68.3086 33.882 68.5606 33.994C68.8166 34.102 69.0286 34.258 69.1966 34.462C69.3686 34.662 69.4986 34.904 69.5866 35.188C69.6746 35.472 69.7186 35.786 69.7186 36.13V40H68.6446V36.13C68.6446 35.67 68.5386 35.314 68.3266 35.062C68.1186 34.806 67.8006 34.678 67.3726 34.678C67.0566 34.678 66.7606 34.754 66.4846 34.906C66.2126 35.058 65.9606 35.264 65.7286 35.524V40H64.6546V33.922H65.2966C65.4486 33.922 65.5426 33.996 65.5786 34.144L65.6626 34.804ZM77.0503 35.566C77.3863 35.566 77.6823 35.526 77.9383 35.446C78.1983 35.362 78.4143 35.246 78.5863 35.098C78.7623 34.946 78.8943 34.766 78.9823 34.558C79.0703 34.35 79.1143 34.12 79.1143 33.868C79.1143 33.356 78.9463 32.97 78.6103 32.71C78.2743 32.45 77.7703 32.32 77.0983 32.32H75.8263V35.566H77.0503ZM81.0223 40H79.9903C79.7783 40 79.6223 39.918 79.5223 39.754L77.2903 36.682C77.2223 36.586 77.1483 36.518 77.0683 36.478C76.9923 36.434 76.8723 36.412 76.7083 36.412H75.8263V40H74.6683V31.402H77.0983C77.6423 31.402 78.1123 31.458 78.5083 31.57C78.9043 31.678 79.2303 31.836 79.4863 32.044C79.7463 32.252 79.9383 32.504 80.0623 32.8C80.1863 33.092 80.2483 33.42 80.2483 33.784C80.2483 34.088 80.2003 34.372 80.1043 34.636C80.0083 34.9 79.8683 35.138 79.6843 35.35C79.5043 35.558 79.2823 35.736 79.0183 35.884C78.7583 36.032 78.4623 36.144 78.1303 36.22C78.2783 36.304 78.4063 36.426 78.5143 36.586L81.0223 40ZM86.5898 32.746C86.5538 32.806 86.5138 32.852 86.4698 32.884C86.4298 32.912 86.3798 32.926 86.3198 32.926C86.2518 32.926 86.1718 32.892 86.0798 32.824C85.9878 32.756 85.8718 32.682 85.7318 32.602C85.5958 32.518 85.4298 32.442 85.2338 32.374C85.0418 32.306 84.8078 32.272 84.5318 32.272C84.2718 32.272 84.0418 32.308 83.8418 32.38C83.6458 32.448 83.4798 32.542 83.3438 32.662C83.2118 32.782 83.1118 32.924 83.0438 33.088C82.9758 33.248 82.9418 33.422 82.9418 33.61C82.9418 33.85 82.9998 34.05 83.1158 34.21C83.2358 34.366 83.3918 34.5 83.5838 34.612C83.7798 34.724 83.9998 34.822 84.2438 34.906C84.4918 34.986 84.7438 35.07 84.9998 35.158C85.2598 35.246 85.5118 35.346 85.7558 35.458C86.0038 35.566 86.2238 35.704 86.4158 35.872C86.6118 36.04 86.7678 36.246 86.8838 36.49C87.0038 36.734 87.0638 37.034 87.0638 37.39C87.0638 37.766 86.9998 38.12 86.8718 38.452C86.7438 38.78 86.5558 39.066 86.3078 39.31C86.0638 39.554 85.7618 39.746 85.4018 39.886C85.0458 40.026 84.6398 40.096 84.1838 40.096C83.6238 40.096 83.1158 39.996 82.6598 39.796C82.2038 39.592 81.8137 39.318 81.4897 38.974L81.8258 38.422C81.8578 38.378 81.8958 38.342 81.9398 38.314C81.9878 38.282 82.0398 38.266 82.0958 38.266C82.1478 38.266 82.2058 38.288 82.2698 38.332C82.3378 38.372 82.4138 38.424 82.4978 38.488C82.5818 38.552 82.6778 38.622 82.7858 38.698C82.8938 38.774 83.0158 38.844 83.1518 38.908C83.2918 38.972 83.4498 39.026 83.6258 39.07C83.8018 39.11 83.9998 39.13 84.2198 39.13C84.4958 39.13 84.7418 39.092 84.9578 39.016C85.1738 38.94 85.3558 38.834 85.5038 38.698C85.6558 38.558 85.7718 38.392 85.8518 38.2C85.9318 38.008 85.9718 37.794 85.9718 37.558C85.9718 37.298 85.9118 37.086 85.7918 36.922C85.6758 36.754 85.5218 36.614 85.3298 36.502C85.1378 36.39 84.9178 36.296 84.6698 36.22C84.4218 36.14 84.1698 36.06 83.9138 35.98C83.6578 35.896 83.4058 35.8 83.1578 35.692C82.9098 35.584 82.6898 35.444 82.4978 35.272C82.3058 35.1 82.1498 34.886 82.0298 34.63C81.9138 34.37 81.8558 34.05 81.8558 33.67C81.8558 33.366 81.9138 33.072 82.0298 32.788C82.1498 32.504 82.3218 32.252 82.5458 32.032C82.7738 31.812 83.0518 31.636 83.3798 31.504C83.7118 31.372 84.0918 31.306 84.5198 31.306C84.9998 31.306 85.4358 31.382 85.8278 31.534C86.2238 31.686 86.5718 31.906 86.8718 32.194L86.5898 32.746ZM93.1054 32.746C93.0694 32.806 93.0294 32.852 92.9854 32.884C92.9454 32.912 92.8954 32.926 92.8354 32.926C92.7674 32.926 92.6874 32.892 92.5954 32.824C92.5034 32.756 92.3874 32.682 92.2474 32.602C92.1114 32.518 91.9454 32.442 91.7494 32.374C91.5574 32.306 91.3234 32.272 91.0474 32.272C90.7874 32.272 90.5574 32.308 90.3574 32.38C90.1614 32.448 89.9954 32.542 89.8594 32.662C89.7274 32.782 89.6274 32.924 89.5594 33.088C89.4914 33.248 89.4574 33.422 89.4574 33.61C89.4574 33.85 89.5154 34.05 89.6314 34.21C89.7514 34.366 89.9074 34.5 90.0994 34.612C90.2954 34.724 90.5154 34.822 90.7594 34.906C91.0074 34.986 91.2594 35.07 91.5154 35.158C91.7754 35.246 92.0274 35.346 92.2714 35.458C92.5194 35.566 92.7394 35.704 92.9314 35.872C93.1274 36.04 93.2834 36.246 93.3994 36.49C93.5194 36.734 93.5794 37.034 93.5794 37.39C93.5794 37.766 93.5154 38.12 93.3874 38.452C93.2594 38.78 93.0714 39.066 92.8234 39.31C92.5794 39.554 92.2774 39.746 91.9174 39.886C91.5614 40.026 91.1554 40.096 90.6994 40.096C90.1394 40.096 89.6314 39.996 89.1754 39.796C88.7194 39.592 88.3294 39.318 88.0054 38.974L88.3414 38.422C88.3734 38.378 88.4114 38.342 88.4554 38.314C88.5034 38.282 88.5554 38.266 88.6114 38.266C88.6634 38.266 88.7214 38.288 88.7854 38.332C88.8534 38.372 88.9294 38.424 89.0134 38.488C89.0974 38.552 89.1934 38.622 89.3014 38.698C89.4094 38.774 89.5314 38.844 89.6674 38.908C89.8074 38.972 89.9654 39.026 90.1414 39.07C90.3174 39.11 90.5154 39.13 90.7354 39.13C91.0114 39.13 91.2574 39.092 91.4734 39.016C91.6894 38.94 91.8714 38.834 92.0194 38.698C92.1714 38.558 92.2874 38.392 92.3674 38.2C92.4474 38.008 92.4874 37.794 92.4874 37.558C92.4874 37.298 92.4274 37.086 92.3074 36.922C92.1914 36.754 92.0374 36.614 91.8454 36.502C91.6534 36.39 91.4334 36.296 91.1854 36.22C90.9374 36.14 90.6854 36.06 90.4294 35.98C90.1734 35.896 89.9214 35.8 89.6734 35.692C89.4254 35.584 89.2054 35.444 89.0134 35.272C88.8214 35.1 88.6654 34.886 88.5454 34.63C88.4294 34.37 88.3714 34.05 88.3714 33.67C88.3714 33.366 88.4294 33.072 88.5454 32.788C88.6654 32.504 88.8374 32.252 89.0614 32.032C89.2894 31.812 89.5674 31.636 89.8954 31.504C90.2274 31.372 90.6074 31.306 91.0354 31.306C91.5154 31.306 91.9514 31.382 92.3434 31.534C92.7394 31.686 93.0874 31.906 93.3874 32.194L93.1054 32.746ZM99.4573 32.35V35.356H102.991V36.304H99.4573V40H98.2933V31.402H103.591V32.35H99.4573ZM108.367 36.298C108.367 36.05 108.331 35.824 108.259 35.62C108.191 35.412 108.089 35.234 107.953 35.086C107.821 34.934 107.659 34.818 107.467 34.738C107.275 34.654 107.057 34.612 106.813 34.612C106.301 34.612 105.895 34.762 105.595 35.062C105.299 35.358 105.115 35.77 105.043 36.298H108.367ZM109.231 39.148C109.099 39.308 108.941 39.448 108.757 39.568C108.573 39.684 108.375 39.78 108.163 39.856C107.955 39.932 107.739 39.988 107.515 40.024C107.291 40.064 107.069 40.084 106.849 40.084C106.429 40.084 106.041 40.014 105.685 39.874C105.333 39.73 105.027 39.522 104.767 39.25C104.511 38.974 104.311 38.634 104.167 38.23C104.023 37.826 103.951 37.362 103.951 36.838C103.951 36.414 104.015 36.018 104.143 35.65C104.275 35.282 104.463 34.964 104.707 34.696C104.951 34.424 105.249 34.212 105.601 34.06C105.953 33.904 106.349 33.826 106.789 33.826C107.153 33.826 107.489 33.888 107.797 34.012C108.109 34.132 108.377 34.308 108.601 34.54C108.829 34.768 109.007 35.052 109.135 35.392C109.263 35.728 109.327 36.112 109.327 36.544C109.327 36.712 109.309 36.824 109.273 36.88C109.237 36.936 109.169 36.964 109.069 36.964H105.007C105.019 37.348 105.071 37.682 105.163 37.966C105.259 38.25 105.391 38.488 105.559 38.68C105.727 38.868 105.927 39.01 106.159 39.106C106.391 39.198 106.651 39.244 106.939 39.244C107.207 39.244 107.437 39.214 107.629 39.154C107.825 39.09 107.993 39.022 108.133 38.95C108.273 38.878 108.389 38.812 108.481 38.752C108.577 38.688 108.659 38.656 108.727 38.656C108.815 38.656 108.883 38.69 108.931 38.758L109.231 39.148ZM114.707 36.298C114.707 36.05 114.671 35.824 114.599 35.62C114.531 35.412 114.429 35.234 114.293 35.086C114.161 34.934 113.999 34.818 113.807 34.738C113.615 34.654 113.397 34.612 113.153 34.612C112.641 34.612 112.235 34.762 111.935 35.062C111.639 35.358 111.455 35.77 111.383 36.298H114.707ZM115.571 39.148C115.439 39.308 115.281 39.448 115.097 39.568C114.913 39.684 114.715 39.78 114.503 39.856C114.295 39.932 114.079 39.988 113.855 40.024C113.631 40.064 113.409 40.084 113.189 40.084C112.769 40.084 112.381 40.014 112.025 39.874C111.673 39.73 111.367 39.522 111.107 39.25C110.851 38.974 110.651 38.634 110.507 38.23C110.363 37.826 110.291 37.362 110.291 36.838C110.291 36.414 110.355 36.018 110.483 35.65C110.615 35.282 110.803 34.964 111.047 34.696C111.291 34.424 111.589 34.212 111.941 34.06C112.293 33.904 112.689 33.826 113.129 33.826C113.493 33.826 113.829 33.888 114.137 34.012C114.449 34.132 114.717 34.308 114.941 34.54C115.169 34.768 115.347 35.052 115.475 35.392C115.603 35.728 115.667 36.112 115.667 36.544C115.667 36.712 115.649 36.824 115.613 36.88C115.577 36.936 115.509 36.964 115.409 36.964H111.347C111.359 37.348 111.411 37.682 111.503 37.966C111.599 38.25 111.731 38.488 111.899 38.68C112.067 38.868 112.267 39.01 112.499 39.106C112.731 39.198 112.991 39.244 113.279 39.244C113.547 39.244 113.777 39.214 113.969 39.154C114.165 39.09 114.333 39.022 114.473 38.95C114.613 38.878 114.729 38.812 114.821 38.752C114.917 38.688 114.999 38.656 115.067 38.656C115.155 38.656 115.223 38.69 115.271 38.758L115.571 39.148ZM120.939 35.368C120.739 35.1 120.523 34.914 120.291 34.81C120.059 34.702 119.799 34.648 119.511 34.648C118.947 34.648 118.513 34.85 118.209 35.254C117.905 35.658 117.753 36.234 117.753 36.982C117.753 37.378 117.787 37.718 117.855 38.002C117.923 38.282 118.023 38.514 118.155 38.698C118.287 38.878 118.449 39.01 118.641 39.094C118.833 39.178 119.051 39.22 119.295 39.22C119.647 39.22 119.953 39.14 120.213 38.98C120.477 38.82 120.719 38.594 120.939 38.302V35.368ZM122.007 31.162V40H121.371C121.219 40 121.123 39.926 121.083 39.778L120.987 39.04C120.727 39.352 120.431 39.604 120.099 39.796C119.767 39.988 119.383 40.084 118.947 40.084C118.599 40.084 118.283 40.018 117.999 39.886C117.715 39.75 117.473 39.552 117.273 39.292C117.073 39.032 116.919 38.708 116.811 38.32C116.703 37.932 116.649 37.486 116.649 36.982C116.649 36.534 116.709 36.118 116.829 35.734C116.949 35.346 117.121 35.01 117.345 34.726C117.569 34.442 117.843 34.22 118.167 34.06C118.495 33.896 118.863 33.814 119.271 33.814C119.643 33.814 119.961 33.878 120.225 34.006C120.493 34.13 120.731 34.304 120.939 34.528V31.162H122.007Z" fill="#8A8A8A"/>
</svg>