<svg width="128" height="51" viewBox="0 0 128 51" fill="none" xmlns="http://www.w3.org/2000/svg">
<rect width="50" height="50" rx="4" fill="#3B5998"/>
<path d="M16 11H37V45C37 47.7614 34.7614 50 32 50H21C18.2386 50 16 47.7614 16 45V11Z" fill="white"/>
<path d="M50 27C50 13.7438 39.2562 3 26 3C12.7438 3 2 13.7438 2 27C2 38.9813 10.775 48.9094 22.25 50.7094V33.9375H16.1562V27H22.25V21.7125C22.25 15.6984 25.8313 12.375 31.3156 12.375C33.9406 12.375 36.6875 12.8438 36.6875 12.8438V18.75H33.6594C30.6781 18.75 29.75 20.6016 29.75 22.5V27H36.4062L35.3422 33.9375H29.75V50.7094C41.225 48.9094 50 38.9813 50 27Z" fill="#3B5998"/>
<rect x="19" y="50" width="14" height="1" fill="white"/>
<path d="M66.96 21.37V23H58.83V8.67H60.76V21.37H66.96ZM70.5634 12.87V23H68.7834V12.87H70.5634ZM70.9434 9.69C70.9434 9.86333 70.9068 10.0267 70.8334 10.18C70.7668 10.3267 70.6734 10.46 70.5534 10.58C70.4401 10.6933 70.3034 10.7833 70.1434 10.85C69.9901 10.9167 69.8268 10.95 69.6534 10.95C69.4801 10.95 69.3168 10.9167 69.1634 10.85C69.0168 10.7833 68.8868 10.6933 68.7734 10.58C68.6601 10.46 68.5701 10.3267 68.5034 10.18C68.4368 10.0267 68.4034 9.86333 68.4034 9.69C68.4034 9.51667 68.4368 9.35333 68.5034 9.2C68.5701 9.04 68.6601 8.90333 68.7734 8.79C68.8868 8.67 69.0168 8.57667 69.1634 8.51C69.3168 8.44333 69.4801 8.41 69.6534 8.41C69.8268 8.41 69.9901 8.44333 70.1434 8.51C70.3034 8.57667 70.4401 8.67 70.5534 8.79C70.6734 8.90333 70.7668 9.04 70.8334 9.2C70.9068 9.35333 70.9434 9.51667 70.9434 9.69ZM75.2781 8.27V16.94H75.7381C75.8715 16.94 75.9815 16.9233 76.0681 16.89C76.1615 16.85 76.2581 16.7733 76.3581 16.66L79.5581 13.23C79.6515 13.1167 79.7481 13.03 79.8481 12.97C79.9548 12.9033 80.0948 12.87 80.2681 12.87H81.8781L78.1481 16.84C77.9681 17.0667 77.7748 17.2433 77.5681 17.37C77.6881 17.45 77.7948 17.5433 77.8881 17.65C77.9881 17.75 78.0815 17.8667 78.1681 18L82.1281 23H80.5381C80.3848 23 80.2515 22.9767 80.1381 22.93C80.0315 22.8767 79.9381 22.7833 79.8581 22.65L76.5281 18.5C76.4281 18.36 76.3281 18.27 76.2281 18.23C76.1348 18.1833 75.9881 18.16 75.7881 18.16H75.2781V23H73.4881V8.27H75.2781ZM89.858 16.83C89.858 16.4167 89.798 16.04 89.678 15.7C89.5646 15.3533 89.3946 15.0567 89.168 14.81C88.948 14.5567 88.678 14.3633 88.358 14.23C88.038 14.09 87.6746 14.02 87.268 14.02C86.4146 14.02 85.738 14.27 85.238 14.77C84.7446 15.2633 84.438 15.95 84.318 16.83H89.858ZM91.298 21.58C91.078 21.8467 90.8146 22.08 90.508 22.28C90.2013 22.4733 89.8713 22.6333 89.518 22.76C89.1713 22.8867 88.8113 22.98 88.438 23.04C88.0646 23.1067 87.6946 23.14 87.328 23.14C86.628 23.14 85.9813 23.0233 85.388 22.79C84.8013 22.55 84.2913 22.2033 83.858 21.75C83.4313 21.29 83.098 20.7233 82.858 20.05C82.618 19.3767 82.498 18.6033 82.498 17.73C82.498 17.0233 82.6046 16.3633 82.818 15.75C83.038 15.1367 83.3513 14.6067 83.758 14.16C84.1646 13.7067 84.6613 13.3533 85.248 13.1C85.8346 12.84 86.4946 12.71 87.228 12.71C87.8346 12.71 88.3946 12.8133 88.908 13.02C89.428 13.22 89.8746 13.5133 90.248 13.9C90.628 14.28 90.9246 14.7533 91.138 15.32C91.3513 15.88 91.458 16.52 91.458 17.24C91.458 17.52 91.428 17.7067 91.368 17.8C91.308 17.8933 91.1946 17.94 91.028 17.94H84.258C84.278 18.58 84.3646 19.1367 84.518 19.61C84.678 20.0833 84.898 20.48 85.178 20.8C85.458 21.1133 85.7913 21.35 86.178 21.51C86.5646 21.6633 86.998 21.74 87.478 21.74C87.9246 21.74 88.308 21.69 88.628 21.59C88.9546 21.4833 89.2346 21.37 89.468 21.25C89.7013 21.13 89.8946 21.02 90.048 20.92C90.208 20.8133 90.3446 20.76 90.458 20.76C90.6046 20.76 90.718 20.8167 90.798 20.93L91.298 21.58Z" fill="black"/>
<path d="M60.408 33.826C60.852 33.826 61.252 33.9 61.608 34.048C61.964 34.196 62.268 34.406 62.52 34.678C62.772 34.95 62.964 35.28 63.096 35.668C63.232 36.052 63.3 36.482 63.3 36.958C63.3 37.438 63.232 37.87 63.096 38.254C62.964 38.638 62.772 38.966 62.52 39.238C62.268 39.51 61.964 39.72 61.608 39.868C61.252 40.012 60.852 40.084 60.408 40.084C59.96 40.084 59.556 40.012 59.196 39.868C58.84 39.72 58.536 39.51 58.284 39.238C58.032 38.966 57.838 38.638 57.702 38.254C57.57 37.87 57.504 37.438 57.504 36.958C57.504 36.482 57.57 36.052 57.702 35.668C57.838 35.28 58.032 34.95 58.284 34.678C58.536 34.406 58.84 34.196 59.196 34.048C59.556 33.9 59.96 33.826 60.408 33.826ZM60.408 39.25C61.008 39.25 61.456 39.05 61.752 38.65C62.048 38.246 62.196 37.684 62.196 36.964C62.196 36.24 62.048 35.676 61.752 35.272C61.456 34.868 61.008 34.666 60.408 34.666C60.104 34.666 59.838 34.718 59.61 34.822C59.386 34.926 59.198 35.076 59.046 35.272C58.898 35.468 58.786 35.71 58.71 35.998C58.638 36.282 58.602 36.604 58.602 36.964C58.602 37.684 58.75 38.246 59.046 38.65C59.346 39.05 59.8 39.25 60.408 39.25ZM65.6626 34.804C65.7946 34.656 65.9346 34.522 66.0826 34.402C66.2306 34.282 66.3866 34.18 66.5506 34.096C66.7186 34.008 66.8946 33.942 67.0786 33.898C67.2666 33.85 67.4686 33.826 67.6846 33.826C68.0166 33.826 68.3086 33.882 68.5606 33.994C68.8166 34.102 69.0286 34.258 69.1966 34.462C69.3686 34.662 69.4986 34.904 69.5866 35.188C69.6746 35.472 69.7186 35.786 69.7186 36.13V40H68.6446V36.13C68.6446 35.67 68.5386 35.314 68.3266 35.062C68.1186 34.806 67.8006 34.678 67.3726 34.678C67.0566 34.678 66.7606 34.754 66.4846 34.906C66.2126 35.058 65.9606 35.264 65.7286 35.524V40H64.6546V33.922H65.2966C65.4486 33.922 65.5426 33.996 65.5786 34.144L65.6626 34.804ZM75.8323 32.35V35.356H79.3663V36.304H75.8323V40H74.6683V31.402H79.9663V32.35H75.8323ZM83.64 37.264C83.148 37.28 82.728 37.32 82.38 37.384C82.036 37.444 81.754 37.524 81.534 37.624C81.318 37.724 81.16 37.842 81.06 37.978C80.964 38.114 80.916 38.266 80.916 38.434C80.916 38.594 80.942 38.732 80.994 38.848C81.046 38.964 81.116 39.06 81.204 39.136C81.296 39.208 81.402 39.262 81.522 39.298C81.646 39.33 81.778 39.346 81.918 39.346C82.106 39.346 82.278 39.328 82.434 39.292C82.59 39.252 82.736 39.196 82.872 39.124C83.012 39.052 83.144 38.966 83.268 38.866C83.396 38.766 83.52 38.652 83.64 38.524V37.264ZM80.19 34.78C80.526 34.456 80.888 34.214 81.276 34.054C81.664 33.894 82.094 33.814 82.566 33.814C82.906 33.814 83.208 33.87 83.472 33.982C83.736 34.094 83.958 34.25 84.138 34.45C84.318 34.65 84.454 34.892 84.546 35.176C84.638 35.46 84.684 35.772 84.684 36.112V40H84.21C84.106 40 84.026 39.984 83.97 39.952C83.914 39.916 83.87 39.848 83.838 39.748L83.718 39.172C83.558 39.32 83.402 39.452 83.25 39.568C83.098 39.68 82.938 39.776 82.77 39.856C82.602 39.932 82.422 39.99 82.23 40.03C82.042 40.074 81.832 40.096 81.6 40.096C81.364 40.096 81.142 40.064 80.934 40C80.726 39.932 80.544 39.832 80.388 39.7C80.236 39.568 80.114 39.402 80.022 39.202C79.934 38.998 79.89 38.758 79.89 38.482C79.89 38.242 79.956 38.012 80.088 37.792C80.22 37.568 80.434 37.37 80.73 37.198C81.026 37.026 81.412 36.886 81.888 36.778C82.364 36.666 82.948 36.602 83.64 36.586V36.112C83.64 35.64 83.538 35.284 83.334 35.044C83.13 34.8 82.832 34.678 82.44 34.678C82.176 34.678 81.954 34.712 81.774 34.78C81.598 34.844 81.444 34.918 81.312 35.002C81.184 35.082 81.072 35.156 80.976 35.224C80.884 35.288 80.792 35.32 80.7 35.32C80.628 35.32 80.566 35.302 80.514 35.266C80.462 35.226 80.418 35.178 80.382 35.122L80.19 34.78ZM90.5408 35.002C90.5088 35.046 90.4768 35.08 90.4448 35.104C90.4128 35.128 90.3688 35.14 90.3128 35.14C90.2528 35.14 90.1868 35.116 90.1148 35.068C90.0428 35.016 89.9528 34.96 89.8448 34.9C89.7408 34.84 89.6108 34.786 89.4548 34.738C89.3028 34.686 89.1148 34.66 88.8908 34.66C88.5908 34.66 88.3268 34.714 88.0988 34.822C87.8708 34.926 87.6788 35.078 87.5228 35.278C87.3708 35.478 87.2548 35.72 87.1748 36.004C87.0988 36.288 87.0608 36.606 87.0608 36.958C87.0608 37.326 87.1028 37.654 87.1868 37.942C87.2708 38.226 87.3888 38.466 87.5408 38.662C87.6968 38.854 87.8828 39.002 88.0988 39.106C88.3188 39.206 88.5648 39.256 88.8368 39.256C89.0968 39.256 89.3108 39.226 89.4788 39.166C89.6468 39.102 89.7848 39.032 89.8928 38.956C90.0048 38.88 90.0968 38.812 90.1688 38.752C90.2448 38.688 90.3188 38.656 90.3908 38.656C90.4788 38.656 90.5468 38.69 90.5948 38.758L90.8948 39.148C90.7628 39.312 90.6128 39.452 90.4448 39.568C90.2768 39.684 90.0948 39.782 89.8988 39.862C89.7068 39.938 89.5048 39.994 89.2928 40.03C89.0808 40.066 88.8648 40.084 88.6448 40.084C88.2648 40.084 87.9108 40.014 87.5828 39.874C87.2588 39.734 86.9768 39.532 86.7368 39.268C86.4968 39 86.3088 38.672 86.1728 38.284C86.0368 37.896 85.9688 37.454 85.9688 36.958C85.9688 36.506 86.0308 36.088 86.1548 35.704C86.2828 35.32 86.4668 34.99 86.7068 34.714C86.9508 34.434 87.2488 34.216 87.6008 34.06C87.9568 33.904 88.3648 33.826 88.8248 33.826C89.2528 33.826 89.6288 33.896 89.9528 34.036C90.2808 34.172 90.5708 34.366 90.8228 34.618L90.5408 35.002ZM96.0038 36.298C96.0038 36.05 95.9678 35.824 95.8958 35.62C95.8278 35.412 95.7258 35.234 95.5898 35.086C95.4578 34.934 95.2958 34.818 95.1038 34.738C94.9118 34.654 94.6938 34.612 94.4498 34.612C93.9378 34.612 93.5318 34.762 93.2318 35.062C92.9358 35.358 92.7518 35.77 92.6798 36.298H96.0038ZM96.8678 39.148C96.7358 39.308 96.5778 39.448 96.3938 39.568C96.2098 39.684 96.0118 39.78 95.7998 39.856C95.5918 39.932 95.3758 39.988 95.1518 40.024C94.9278 40.064 94.7058 40.084 94.4858 40.084C94.0658 40.084 93.6778 40.014 93.3218 39.874C92.9698 39.73 92.6638 39.522 92.4038 39.25C92.1478 38.974 91.9478 38.634 91.8038 38.23C91.6598 37.826 91.5878 37.362 91.5878 36.838C91.5878 36.414 91.6518 36.018 91.7798 35.65C91.9118 35.282 92.0998 34.964 92.3438 34.696C92.5878 34.424 92.8858 34.212 93.2378 34.06C93.5898 33.904 93.9858 33.826 94.4258 33.826C94.7898 33.826 95.1258 33.888 95.4338 34.012C95.7458 34.132 96.0138 34.308 96.2378 34.54C96.4658 34.768 96.6438 35.052 96.7718 35.392C96.8998 35.728 96.9638 36.112 96.9638 36.544C96.9638 36.712 96.9458 36.824 96.9098 36.88C96.8738 36.936 96.8058 36.964 96.7058 36.964H92.6438C92.6558 37.348 92.7078 37.682 92.7998 37.966C92.8958 38.25 93.0278 38.488 93.1958 38.68C93.3638 38.868 93.5638 39.01 93.7958 39.106C94.0278 39.198 94.2878 39.244 94.5758 39.244C94.8438 39.244 95.0738 39.214 95.2658 39.154C95.4618 39.09 95.6298 39.022 95.7698 38.95C95.9098 38.878 96.0258 38.812 96.1178 38.752C96.2138 38.688 96.2958 38.656 96.3638 38.656C96.4518 38.656 96.5198 38.69 96.5678 38.758L96.8678 39.148ZM99.3497 38.536C99.5457 38.8 99.7597 38.986 99.9917 39.094C100.228 39.202 100.486 39.256 100.766 39.256C101.338 39.256 101.776 39.054 102.08 38.65C102.384 38.246 102.536 37.644 102.536 36.844C102.536 36.1 102.4 35.554 102.128 35.206C101.86 34.854 101.476 34.678 100.976 34.678C100.628 34.678 100.324 34.758 100.064 34.918C99.8077 35.078 99.5697 35.304 99.3497 35.596V38.536ZM99.3497 34.798C99.6057 34.502 99.8937 34.266 100.214 34.09C100.538 33.914 100.91 33.826 101.33 33.826C101.686 33.826 102.006 33.894 102.29 34.03C102.578 34.166 102.822 34.364 103.022 34.624C103.222 34.88 103.374 35.192 103.478 35.56C103.586 35.928 103.64 36.342 103.64 36.802C103.64 37.294 103.58 37.742 103.46 38.146C103.34 38.55 103.166 38.896 102.938 39.184C102.714 39.468 102.44 39.69 102.116 39.85C101.792 40.006 101.428 40.084 101.024 40.084C100.624 40.084 100.286 40.01 100.01 39.862C99.7377 39.71 99.4997 39.496 99.2957 39.22L99.2417 39.772C99.2097 39.924 99.1177 40 98.9657 40H98.2757V31.162H99.3497V34.798ZM107.553 33.826C107.997 33.826 108.397 33.9 108.753 34.048C109.109 34.196 109.413 34.406 109.665 34.678C109.917 34.95 110.109 35.28 110.241 35.668C110.377 36.052 110.445 36.482 110.445 36.958C110.445 37.438 110.377 37.87 110.241 38.254C110.109 38.638 109.917 38.966 109.665 39.238C109.413 39.51 109.109 39.72 108.753 39.868C108.397 40.012 107.997 40.084 107.553 40.084C107.105 40.084 106.701 40.012 106.341 39.868C105.985 39.72 105.681 39.51 105.429 39.238C105.177 38.966 104.983 38.638 104.847 38.254C104.715 37.87 104.649 37.438 104.649 36.958C104.649 36.482 104.715 36.052 104.847 35.668C104.983 35.28 105.177 34.95 105.429 34.678C105.681 34.406 105.985 34.196 106.341 34.048C106.701 33.9 107.105 33.826 107.553 33.826ZM107.553 39.25C108.153 39.25 108.601 39.05 108.897 38.65C109.193 38.246 109.341 37.684 109.341 36.964C109.341 36.24 109.193 35.676 108.897 35.272C108.601 34.868 108.153 34.666 107.553 34.666C107.249 34.666 106.983 34.718 106.755 34.822C106.531 34.926 106.343 35.076 106.191 35.272C106.043 35.468 105.931 35.71 105.855 35.998C105.783 36.282 105.747 36.604 105.747 36.964C105.747 37.684 105.895 38.246 106.191 38.65C106.491 39.05 106.945 39.25 107.553 39.25ZM114.361 33.826C114.805 33.826 115.205 33.9 115.561 34.048C115.917 34.196 116.221 34.406 116.473 34.678C116.725 34.95 116.917 35.28 117.049 35.668C117.185 36.052 117.253 36.482 117.253 36.958C117.253 37.438 117.185 37.87 117.049 38.254C116.917 38.638 116.725 38.966 116.473 39.238C116.221 39.51 115.917 39.72 115.561 39.868C115.205 40.012 114.805 40.084 114.361 40.084C113.913 40.084 113.509 40.012 113.149 39.868C112.793 39.72 112.489 39.51 112.237 39.238C111.985 38.966 111.791 38.638 111.655 38.254C111.523 37.87 111.457 37.438 111.457 36.958C111.457 36.482 111.523 36.052 111.655 35.668C111.791 35.28 111.985 34.95 112.237 34.678C112.489 34.406 112.793 34.196 113.149 34.048C113.509 33.9 113.913 33.826 114.361 33.826ZM114.361 39.25C114.961 39.25 115.409 39.05 115.705 38.65C116.001 38.246 116.149 37.684 116.149 36.964C116.149 36.24 116.001 35.676 115.705 35.272C115.409 34.868 114.961 34.666 114.361 34.666C114.057 34.666 113.791 34.718 113.563 34.822C113.339 34.926 113.151 35.076 112.999 35.272C112.851 35.468 112.739 35.71 112.663 35.998C112.591 36.282 112.555 36.604 112.555 36.964C112.555 37.684 112.703 38.246 112.999 38.65C113.299 39.05 113.753 39.25 114.361 39.25ZM119.682 31.162V36.364H119.958C120.038 36.364 120.104 36.354 120.156 36.334C120.212 36.31 120.27 36.264 120.33 36.196L122.25 34.138C122.306 34.07 122.364 34.018 122.424 33.982C122.488 33.942 122.572 33.922 122.676 33.922H123.642L121.404 36.304C121.296 36.44 121.18 36.546 121.056 36.622C121.128 36.67 121.192 36.726 121.248 36.79C121.308 36.85 121.364 36.92 121.416 37L123.792 40H122.838C122.746 40 122.666 39.986 122.598 39.958C122.534 39.926 122.478 39.87 122.43 39.79L120.432 37.3C120.372 37.216 120.312 37.162 120.252 37.138C120.196 37.11 120.108 37.096 119.988 37.096H119.682V40H118.608V31.162H119.682Z" fill="#8A8A8A"/>
</svg>