<svg width="128" height="50" viewBox="0 0 128 50" fill="none" xmlns="http://www.w3.org/2000/svg">
<rect width="50" height="50" rx="4" fill="#1DA1F2"/>
<rect x="8.75" y="8.75" width="32.5" height="32.5" fill="white"/>
<path fill-rule="evenodd" clip-rule="evenodd" d="M25 0C11.1929 0 0 11.1929 0 25C0 38.8071 11.1929 50 25 50C38.8071 50 50 38.8071 50 25C50 11.1929 38.8071 0 25 0ZM24.3037 21.1854L24.2512 20.3203C24.0939 18.0782 25.4753 16.0303 27.6612 15.2359C28.4656 14.9534 29.8296 14.9181 30.7215 15.1653C31.0711 15.2712 31.7357 15.6243 32.2078 15.9421L33.0647 16.5247L34.009 16.2246C34.5336 16.0656 35.2331 15.8008 35.5478 15.6243C35.8451 15.4654 36.1074 15.3771 36.1074 15.4301C36.1074 15.7302 35.4604 16.7542 34.9183 17.3191C34.1839 18.1135 34.3937 18.1842 35.8801 17.6545C36.772 17.3544 36.7894 17.3544 36.6146 17.6898C36.5096 17.8664 35.9675 18.4843 35.3904 19.0492C34.4111 20.0202 34.3588 20.1261 34.3588 20.9382C34.3588 22.1917 33.7642 24.8045 33.1696 26.2345C32.0679 28.9179 29.7072 31.6896 27.3465 33.0843C24.024 35.044 19.5997 35.5382 15.875 34.3907C14.6334 34.0023 12.5 33.0136 12.5 32.8372C12.5 32.7842 13.147 32.7135 13.934 32.6959C15.5777 32.6606 17.2215 32.2016 18.6204 31.3895L19.5648 30.8246L18.4805 30.4539C16.9417 29.9242 15.5602 28.706 15.2105 27.5585C15.1055 27.1878 15.1405 27.1701 16.1198 27.1701L17.1341 27.1525L16.2772 26.7465C15.2629 26.2345 14.3361 25.3694 13.8815 24.4867C13.5492 23.8511 13.1296 22.2446 13.252 22.121C13.2869 22.0681 13.6542 22.174 14.0739 22.3152C15.2804 22.7566 15.4378 22.6506 14.7383 21.9092C13.4268 20.5675 13.0246 18.5725 13.6542 16.6835L13.9515 15.8361L15.1055 16.9836C17.4664 19.2964 20.2468 20.6734 23.4294 21.0795L24.3037 21.1854Z" fill="#1DA1F2"/>
<path d="M60.77 10.25V15.26H66.66V16.84H60.77V23H58.83V8.67H67.66V10.25H60.77ZM73.1097 12.71C73.8497 12.71 74.5164 12.8333 75.1097 13.08C75.703 13.3267 76.2097 13.6767 76.6297 14.13C77.0497 14.5833 77.3697 15.1333 77.5897 15.78C77.8164 16.42 77.9297 17.1367 77.9297 17.93C77.9297 18.73 77.8164 19.45 77.5897 20.09C77.3697 20.73 77.0497 21.2767 76.6297 21.73C76.2097 22.1833 75.703 22.5333 75.1097 22.78C74.5164 23.02 73.8497 23.14 73.1097 23.14C72.363 23.14 71.6897 23.02 71.0897 22.78C70.4964 22.5333 69.9897 22.1833 69.5697 21.73C69.1497 21.2767 68.8264 20.73 68.5997 20.09C68.3797 19.45 68.2697 18.73 68.2697 17.93C68.2697 17.1367 68.3797 16.42 68.5997 15.78C68.8264 15.1333 69.1497 14.5833 69.5697 14.13C69.9897 13.6767 70.4964 13.3267 71.0897 13.08C71.6897 12.8333 72.363 12.71 73.1097 12.71ZM73.1097 21.75C74.1097 21.75 74.8564 21.4167 75.3497 20.75C75.843 20.0767 76.0897 19.14 76.0897 17.94C76.0897 16.7333 75.843 15.7933 75.3497 15.12C74.8564 14.4467 74.1097 14.11 73.1097 14.11C72.603 14.11 72.1597 14.1967 71.7797 14.37C71.4064 14.5433 71.093 14.7933 70.8397 15.12C70.593 15.4467 70.4064 15.85 70.2797 16.33C70.1597 16.8033 70.0997 17.34 70.0997 17.94C70.0997 19.14 70.3464 20.0767 70.8397 20.75C71.3397 21.4167 72.0964 21.75 73.1097 21.75ZM82.0273 8.27V23H80.2473V8.27H82.0273ZM86.7539 8.27V23H84.9739V8.27H86.7539ZM93.9105 12.71C94.6505 12.71 95.3171 12.8333 95.9105 13.08C96.5038 13.3267 97.0105 13.6767 97.4305 14.13C97.8505 14.5833 98.1705 15.1333 98.3905 15.78C98.6171 16.42 98.7305 17.1367 98.7305 17.93C98.7305 18.73 98.6171 19.45 98.3905 20.09C98.1705 20.73 97.8505 21.2767 97.4305 21.73C97.0105 22.1833 96.5038 22.5333 95.9105 22.78C95.3171 23.02 94.6505 23.14 93.9105 23.14C93.1638 23.14 92.4905 23.02 91.8905 22.78C91.2971 22.5333 90.7905 22.1833 90.3705 21.73C89.9505 21.2767 89.6271 20.73 89.4005 20.09C89.1805 19.45 89.0705 18.73 89.0705 17.93C89.0705 17.1367 89.1805 16.42 89.4005 15.78C89.6271 15.1333 89.9505 14.5833 90.3705 14.13C90.7905 13.6767 91.2971 13.3267 91.8905 13.08C92.4905 12.8333 93.1638 12.71 93.9105 12.71ZM93.9105 21.75C94.9105 21.75 95.6571 21.4167 96.1505 20.75C96.6438 20.0767 96.8905 19.14 96.8905 17.94C96.8905 16.7333 96.6438 15.7933 96.1505 15.12C95.6571 14.4467 94.9105 14.11 93.9105 14.11C93.4038 14.11 92.9605 14.1967 92.5805 14.37C92.2071 14.5433 91.8938 14.7933 91.6405 15.12C91.3938 15.4467 91.2071 15.85 91.0805 16.33C90.9605 16.8033 90.9005 17.34 90.9005 17.94C90.9005 19.14 91.1471 20.0767 91.6405 20.75C92.1405 21.4167 92.8971 21.75 93.9105 21.75ZM114.802 12.87L111.522 23H110.112C109.939 23 109.819 22.8867 109.752 22.66L107.512 15.79C107.459 15.6367 107.415 15.4833 107.382 15.33C107.349 15.17 107.315 15.0133 107.282 14.86C107.249 15.0133 107.215 15.17 107.182 15.33C107.149 15.4833 107.105 15.64 107.052 15.8L104.772 22.66C104.712 22.8867 104.579 23 104.372 23H103.032L99.7519 12.87H101.152C101.292 12.87 101.409 12.9067 101.502 12.98C101.602 13.0533 101.669 13.14 101.702 13.24L103.642 19.76C103.755 20.24 103.845 20.6933 103.912 21.12C103.972 20.9 104.032 20.6767 104.092 20.45C104.159 20.2233 104.229 19.9933 104.302 19.76L106.442 13.2C106.475 13.1 106.532 13.0167 106.612 12.95C106.699 12.8833 106.802 12.85 106.922 12.85H107.702C107.835 12.85 107.945 12.8833 108.032 12.95C108.119 13.0167 108.179 13.1 108.212 13.2L110.302 19.76C110.375 19.9933 110.442 20.2233 110.502 20.45C110.562 20.6767 110.619 20.9 110.672 21.12C110.705 20.9 110.745 20.68 110.792 20.46C110.845 20.2333 110.902 20 110.962 19.76L112.942 13.24C112.975 13.1333 113.039 13.0467 113.132 12.98C113.225 12.9067 113.335 12.87 113.462 12.87H114.802Z" fill="black"/>
<path d="M60.408 33.826C60.852 33.826 61.252 33.9 61.608 34.048C61.964 34.196 62.268 34.406 62.52 34.678C62.772 34.95 62.964 35.28 63.096 35.668C63.232 36.052 63.3 36.482 63.3 36.958C63.3 37.438 63.232 37.87 63.096 38.254C62.964 38.638 62.772 38.966 62.52 39.238C62.268 39.51 61.964 39.72 61.608 39.868C61.252 40.012 60.852 40.084 60.408 40.084C59.96 40.084 59.556 40.012 59.196 39.868C58.84 39.72 58.536 39.51 58.284 39.238C58.032 38.966 57.838 38.638 57.702 38.254C57.57 37.87 57.504 37.438 57.504 36.958C57.504 36.482 57.57 36.052 57.702 35.668C57.838 35.28 58.032 34.95 58.284 34.678C58.536 34.406 58.84 34.196 59.196 34.048C59.556 33.9 59.96 33.826 60.408 33.826ZM60.408 39.25C61.008 39.25 61.456 39.05 61.752 38.65C62.048 38.246 62.196 37.684 62.196 36.964C62.196 36.24 62.048 35.676 61.752 35.272C61.456 34.868 61.008 34.666 60.408 34.666C60.104 34.666 59.838 34.718 59.61 34.822C59.386 34.926 59.198 35.076 59.046 35.272C58.898 35.468 58.786 35.71 58.71 35.998C58.638 36.282 58.602 36.604 58.602 36.964C58.602 37.684 58.75 38.246 59.046 38.65C59.346 39.05 59.8 39.25 60.408 39.25ZM65.6626 34.804C65.7946 34.656 65.9346 34.522 66.0826 34.402C66.2306 34.282 66.3866 34.18 66.5506 34.096C66.7186 34.008 66.8946 33.942 67.0786 33.898C67.2666 33.85 67.4686 33.826 67.6846 33.826C68.0166 33.826 68.3086 33.882 68.5606 33.994C68.8166 34.102 69.0286 34.258 69.1966 34.462C69.3686 34.662 69.4986 34.904 69.5866 35.188C69.6746 35.472 69.7186 35.786 69.7186 36.13V40H68.6446V36.13C68.6446 35.67 68.5386 35.314 68.3266 35.062C68.1186 34.806 67.8006 34.678 67.3726 34.678C67.0566 34.678 66.7606 34.754 66.4846 34.906C66.2126 35.058 65.9606 35.264 65.7286 35.524V40H64.6546V33.922H65.2966C65.4486 33.922 65.5426 33.996 65.5786 34.144L65.6626 34.804ZM80.119 32.38H77.335V40H76.177V32.38H73.387V31.402H80.119V32.38ZM88.4702 33.922L86.5022 40H85.6562C85.5522 40 85.4802 39.932 85.4402 39.796L84.0962 35.674C84.0642 35.582 84.0382 35.49 84.0182 35.398C83.9982 35.302 83.9782 35.208 83.9582 35.116C83.9382 35.208 83.9182 35.302 83.8982 35.398C83.8782 35.49 83.8522 35.584 83.8202 35.68L82.4522 39.796C82.4162 39.932 82.3362 40 82.2122 40H81.4082L79.4402 33.922H80.2802C80.3642 33.922 80.4342 33.944 80.4902 33.988C80.5502 34.032 80.5902 34.084 80.6102 34.144L81.7742 38.056C81.8422 38.344 81.8962 38.616 81.9362 38.872C81.9722 38.74 82.0082 38.606 82.0442 38.47C82.0842 38.334 82.1262 38.196 82.1702 38.056L83.4542 34.12C83.4742 34.06 83.5082 34.01 83.5562 33.97C83.6082 33.93 83.6702 33.91 83.7422 33.91H84.2102C84.2902 33.91 84.3562 33.93 84.4082 33.97C84.4602 34.01 84.4962 34.06 84.5162 34.12L85.7702 38.056C85.8142 38.196 85.8542 38.334 85.8902 38.47C85.9262 38.606 85.9602 38.74 85.9922 38.872C86.0122 38.74 86.0362 38.608 86.0642 38.476C86.0962 38.34 86.1302 38.2 86.1662 38.056L87.3542 34.144C87.3742 34.08 87.4122 34.028 87.4682 33.988C87.5242 33.944 87.5902 33.922 87.6662 33.922H88.4702ZM90.6381 33.922V40H89.5701V33.922H90.6381ZM90.8661 32.014C90.8661 32.118 90.8441 32.216 90.8001 32.308C90.7601 32.396 90.7041 32.476 90.6321 32.548C90.5641 32.616 90.4821 32.67 90.3861 32.71C90.2941 32.75 90.1961 32.77 90.0921 32.77C89.9881 32.77 89.8901 32.75 89.7981 32.71C89.7101 32.67 89.6321 32.616 89.5641 32.548C89.4961 32.476 89.4421 32.396 89.4021 32.308C89.3621 32.216 89.3421 32.118 89.3421 32.014C89.3421 31.91 89.3621 31.812 89.4021 31.72C89.4421 31.624 89.4961 31.542 89.5641 31.474C89.6321 31.402 89.7101 31.346 89.7981 31.306C89.8901 31.266 89.9881 31.246 90.0921 31.246C90.1961 31.246 90.2941 31.266 90.3861 31.306C90.4821 31.346 90.5641 31.402 90.6321 31.474C90.7041 31.542 90.7601 31.624 90.8001 31.72C90.8441 31.812 90.8661 31.91 90.8661 32.014ZM94.2589 40.096C93.7789 40.096 93.4089 39.962 93.1489 39.694C92.8929 39.426 92.7649 39.04 92.7649 38.536V34.816H92.0329C91.9689 34.816 91.9149 34.798 91.8709 34.762C91.8269 34.722 91.8049 34.662 91.8049 34.582V34.156L92.8009 34.03L93.0469 32.152C93.0589 32.092 93.0849 32.044 93.1249 32.008C93.1689 31.968 93.2249 31.948 93.2929 31.948H93.8329V34.042H96.6949L96.9409 32.152C96.9529 32.092 96.9789 32.044 97.0189 32.008C97.0629 31.968 97.1189 31.948 97.1869 31.948H97.7269V34.042H99.4849V34.816H97.7269V38.464C97.7269 38.72 97.7889 38.91 97.9129 39.034C98.0409 39.158 98.2009 39.22 98.3929 39.22C98.5049 39.22 98.6009 39.206 98.6809 39.178C98.7649 39.146 98.8369 39.112 98.8969 39.076C98.9569 39.04 99.0069 39.008 99.0469 38.98C99.0909 38.948 99.1289 38.932 99.1609 38.932C99.2209 38.932 99.2709 38.966 99.3109 39.034L99.6289 39.544C99.4409 39.716 99.2169 39.852 98.9569 39.952C98.6969 40.048 98.4289 40.096 98.1529 40.096C97.6769 40.096 97.3089 39.962 97.0489 39.694C96.7889 39.426 96.6589 39.04 96.6589 38.536V34.816H93.8329V38.464C93.8329 38.72 93.8949 38.91 94.0189 39.034C94.1429 39.158 94.3029 39.22 94.4989 39.22C94.6109 39.22 94.7069 39.206 94.7869 39.178C94.8709 39.146 94.9429 39.112 95.0029 39.076C95.0629 39.04 95.1129 39.008 95.1529 38.98C95.1969 38.948 95.2349 38.932 95.2669 38.932C95.3229 38.932 95.3729 38.966 95.4169 39.034L95.7289 39.544C95.5449 39.716 95.3229 39.852 95.0629 39.952C94.8029 40.048 94.5349 40.096 94.2589 40.096ZM104.617 36.298C104.617 36.05 104.581 35.824 104.509 35.62C104.441 35.412 104.339 35.234 104.203 35.086C104.071 34.934 103.909 34.818 103.717 34.738C103.525 34.654 103.307 34.612 103.063 34.612C102.551 34.612 102.145 34.762 101.845 35.062C101.549 35.358 101.365 35.77 101.293 36.298H104.617ZM105.481 39.148C105.349 39.308 105.191 39.448 105.007 39.568C104.823 39.684 104.625 39.78 104.413 39.856C104.205 39.932 103.989 39.988 103.765 40.024C103.541 40.064 103.319 40.084 103.099 40.084C102.679 40.084 102.291 40.014 101.935 39.874C101.583 39.73 101.277 39.522 101.017 39.25C100.761 38.974 100.561 38.634 100.417 38.23C100.273 37.826 100.201 37.362 100.201 36.838C100.201 36.414 100.265 36.018 100.393 35.65C100.525 35.282 100.713 34.964 100.957 34.696C101.201 34.424 101.499 34.212 101.851 34.06C102.203 33.904 102.599 33.826 103.039 33.826C103.403 33.826 103.739 33.888 104.047 34.012C104.359 34.132 104.627 34.308 104.851 34.54C105.079 34.768 105.257 35.052 105.385 35.392C105.513 35.728 105.577 36.112 105.577 36.544C105.577 36.712 105.559 36.824 105.523 36.88C105.487 36.936 105.419 36.964 105.319 36.964H101.257C101.269 37.348 101.321 37.682 101.413 37.966C101.509 38.25 101.641 38.488 101.809 38.68C101.977 38.868 102.177 39.01 102.409 39.106C102.641 39.198 102.901 39.244 103.189 39.244C103.457 39.244 103.687 39.214 103.879 39.154C104.075 39.09 104.243 39.022 104.383 38.95C104.523 38.878 104.639 38.812 104.731 38.752C104.827 38.688 104.909 38.656 104.977 38.656C105.065 38.656 105.133 38.69 105.181 38.758L105.481 39.148ZM107.903 35.14C108.095 34.724 108.331 34.4 108.611 34.168C108.891 33.932 109.233 33.814 109.637 33.814C109.765 33.814 109.887 33.828 110.003 33.856C110.123 33.884 110.229 33.928 110.321 33.988L110.243 34.786C110.219 34.886 110.159 34.936 110.063 34.936C110.007 34.936 109.925 34.924 109.817 34.9C109.709 34.876 109.587 34.864 109.451 34.864C109.259 34.864 109.087 34.892 108.935 34.948C108.787 35.004 108.653 35.088 108.533 35.2C108.417 35.308 108.311 35.444 108.215 35.608C108.123 35.768 108.039 35.952 107.963 36.16V40H106.889V33.922H107.501C107.617 33.922 107.697 33.944 107.741 33.988C107.785 34.032 107.815 34.108 107.831 34.216L107.903 35.14Z" fill="#8A8A8A"/>
</svg>