<svg width="128" height="50" viewBox="0 0 128 50" fill="none" xmlns="http://www.w3.org/2000/svg">
<rect width="50" height="50" rx="4" fill="url(#paint0_linear)"/>
<path fill-rule="evenodd" clip-rule="evenodd" d="M22.9135 10.0044C23.2215 10.004 23.553 10.0041 23.9106 10.0043L24.5003 10.0044C29.2228 10.0044 29.7826 10.0214 31.6475 10.1061C33.3721 10.1851 34.308 10.4732 34.9315 10.7153C35.757 11.036 36.3454 11.4193 36.9641 12.0385C37.5832 12.6576 37.9664 13.2473 38.2878 14.0728C38.5299 14.6956 38.8184 15.6317 38.8969 17.3564C38.9816 19.2213 39 19.7814 39 24.5023C39 29.2234 38.9816 29.7835 38.8969 31.6484C38.818 33.3732 38.5299 34.3092 38.2878 34.9321C37.9672 35.7575 37.5832 36.3454 36.9641 36.9642C36.3451 37.5833 35.7573 37.9667 34.9315 38.2873C34.3088 38.5305 33.3721 38.818 31.6475 38.8968C29.7829 38.9816 29.2228 39 24.5003 39C19.7773 39 19.2175 38.9816 17.3529 38.8968C15.6283 38.8172 14.6924 38.529 14.0685 38.2869C13.2432 37.9663 12.6535 37.5829 12.0345 36.9638C11.4154 36.3446 11.0322 35.7564 10.7108 34.9305C10.4687 34.3078 10.1802 33.3716 10.1017 31.6469C10.017 29.7822 10 29.2219 10 24.4979C10 19.7741 10.017 19.2169 10.1017 17.352C10.1806 15.6272 10.4687 14.6912 10.7108 14.0677C11.0314 13.242 11.4154 12.6525 12.0345 12.0333C12.6535 11.4142 13.2432 11.0308 14.0685 10.7095C14.692 10.4663 15.6283 10.1788 17.3529 10.0995C18.9845 10.0258 19.617 10.0037 22.9135 10V10.0044ZM33.9418 12.9417C32.77 12.9417 31.8192 13.8915 31.8192 15.0638C31.8192 16.2357 32.77 17.1866 33.9418 17.1866C35.1136 17.1866 36.0643 16.2357 36.0643 15.0638C36.0643 13.8919 35.1136 12.941 33.9418 12.941V12.9417ZM15.4169 24.5065C15.4169 19.4897 19.4837 15.4222 24.4999 15.422C29.5162 15.422 33.5821 19.4895 33.5821 24.5065C33.5821 29.5235 29.5165 33.5892 24.5003 33.5892C19.4839 33.5892 15.4169 29.5235 15.4169 24.5065Z" fill="white"/>
<path d="M24.5 19C27.5374 19 30 21.4623 30 24.5C30 27.5374 27.5374 30 24.5 30C21.4622 30 19 27.5374 19 24.5C19 21.4623 21.4622 19 24.5 19Z" fill="white"/>
<path d="M60.77 10.25V15.26H66.66V16.84H60.77V23H58.83V8.67H67.66V10.25H60.77ZM73.1097 12.71C73.8497 12.71 74.5164 12.8333 75.1097 13.08C75.703 13.3267 76.2097 13.6767 76.6297 14.13C77.0497 14.5833 77.3697 15.1333 77.5897 15.78C77.8164 16.42 77.9297 17.1367 77.9297 17.93C77.9297 18.73 77.8164 19.45 77.5897 20.09C77.3697 20.73 77.0497 21.2767 76.6297 21.73C76.2097 22.1833 75.703 22.5333 75.1097 22.78C74.5164 23.02 73.8497 23.14 73.1097 23.14C72.363 23.14 71.6897 23.02 71.0897 22.78C70.4964 22.5333 69.9897 22.1833 69.5697 21.73C69.1497 21.2767 68.8264 20.73 68.5997 20.09C68.3797 19.45 68.2697 18.73 68.2697 17.93C68.2697 17.1367 68.3797 16.42 68.5997 15.78C68.8264 15.1333 69.1497 14.5833 69.5697 14.13C69.9897 13.6767 70.4964 13.3267 71.0897 13.08C71.6897 12.8333 72.363 12.71 73.1097 12.71ZM73.1097 21.75C74.1097 21.75 74.8564 21.4167 75.3497 20.75C75.843 20.0767 76.0897 19.14 76.0897 17.94C76.0897 16.7333 75.843 15.7933 75.3497 15.12C74.8564 14.4467 74.1097 14.11 73.1097 14.11C72.603 14.11 72.1597 14.1967 71.7797 14.37C71.4064 14.5433 71.093 14.7933 70.8397 15.12C70.593 15.4467 70.4064 15.85 70.2797 16.33C70.1597 16.8033 70.0997 17.34 70.0997 17.94C70.0997 19.14 70.3464 20.0767 70.8397 20.75C71.3397 21.4167 72.0964 21.75 73.1097 21.75ZM82.0273 8.27V23H80.2473V8.27H82.0273ZM86.7539 8.27V23H84.9739V8.27H86.7539ZM93.9105 12.71C94.6505 12.71 95.3171 12.8333 95.9105 13.08C96.5038 13.3267 97.0105 13.6767 97.4305 14.13C97.8505 14.5833 98.1705 15.1333 98.3905 15.78C98.6171 16.42 98.7305 17.1367 98.7305 17.93C98.7305 18.73 98.6171 19.45 98.3905 20.09C98.1705 20.73 97.8505 21.2767 97.4305 21.73C97.0105 22.1833 96.5038 22.5333 95.9105 22.78C95.3171 23.02 94.6505 23.14 93.9105 23.14C93.1638 23.14 92.4905 23.02 91.8905 22.78C91.2971 22.5333 90.7905 22.1833 90.3705 21.73C89.9505 21.2767 89.6271 20.73 89.4005 20.09C89.1805 19.45 89.0705 18.73 89.0705 17.93C89.0705 17.1367 89.1805 16.42 89.4005 15.78C89.6271 15.1333 89.9505 14.5833 90.3705 14.13C90.7905 13.6767 91.2971 13.3267 91.8905 13.08C92.4905 12.8333 93.1638 12.71 93.9105 12.71ZM93.9105 21.75C94.9105 21.75 95.6571 21.4167 96.1505 20.75C96.6438 20.0767 96.8905 19.14 96.8905 17.94C96.8905 16.7333 96.6438 15.7933 96.1505 15.12C95.6571 14.4467 94.9105 14.11 93.9105 14.11C93.4038 14.11 92.9605 14.1967 92.5805 14.37C92.2071 14.5433 91.8938 14.7933 91.6405 15.12C91.3938 15.4467 91.2071 15.85 91.0805 16.33C90.9605 16.8033 90.9005 17.34 90.9005 17.94C90.9005 19.14 91.1471 20.0767 91.6405 20.75C92.1405 21.4167 92.8971 21.75 93.9105 21.75ZM114.802 12.87L111.522 23H110.112C109.939 23 109.819 22.8867 109.752 22.66L107.512 15.79C107.459 15.6367 107.415 15.4833 107.382 15.33C107.349 15.17 107.315 15.0133 107.282 14.86C107.249 15.0133 107.215 15.17 107.182 15.33C107.149 15.4833 107.105 15.64 107.052 15.8L104.772 22.66C104.712 22.8867 104.579 23 104.372 23H103.032L99.7519 12.87H101.152C101.292 12.87 101.409 12.9067 101.502 12.98C101.602 13.0533 101.669 13.14 101.702 13.24L103.642 19.76C103.755 20.24 103.845 20.6933 103.912 21.12C103.972 20.9 104.032 20.6767 104.092 20.45C104.159 20.2233 104.229 19.9933 104.302 19.76L106.442 13.2C106.475 13.1 106.532 13.0167 106.612 12.95C106.699 12.8833 106.802 12.85 106.922 12.85H107.702C107.835 12.85 107.945 12.8833 108.032 12.95C108.119 13.0167 108.179 13.1 108.212 13.2L110.302 19.76C110.375 19.9933 110.442 20.2233 110.502 20.45C110.562 20.6767 110.619 20.9 110.672 21.12C110.705 20.9 110.745 20.68 110.792 20.46C110.845 20.2333 110.902 20 110.962 19.76L112.942 13.24C112.975 13.1333 113.039 13.0467 113.132 12.98C113.225 12.9067 113.335 12.87 113.462 12.87H114.802Z" fill="black"/>
<path d="M60.408 33.826C60.852 33.826 61.252 33.9 61.608 34.048C61.964 34.196 62.268 34.406 62.52 34.678C62.772 34.95 62.964 35.28 63.096 35.668C63.232 36.052 63.3 36.482 63.3 36.958C63.3 37.438 63.232 37.87 63.096 38.254C62.964 38.638 62.772 38.966 62.52 39.238C62.268 39.51 61.964 39.72 61.608 39.868C61.252 40.012 60.852 40.084 60.408 40.084C59.96 40.084 59.556 40.012 59.196 39.868C58.84 39.72 58.536 39.51 58.284 39.238C58.032 38.966 57.838 38.638 57.702 38.254C57.57 37.87 57.504 37.438 57.504 36.958C57.504 36.482 57.57 36.052 57.702 35.668C57.838 35.28 58.032 34.95 58.284 34.678C58.536 34.406 58.84 34.196 59.196 34.048C59.556 33.9 59.96 33.826 60.408 33.826ZM60.408 39.25C61.008 39.25 61.456 39.05 61.752 38.65C62.048 38.246 62.196 37.684 62.196 36.964C62.196 36.24 62.048 35.676 61.752 35.272C61.456 34.868 61.008 34.666 60.408 34.666C60.104 34.666 59.838 34.718 59.61 34.822C59.386 34.926 59.198 35.076 59.046 35.272C58.898 35.468 58.786 35.71 58.71 35.998C58.638 36.282 58.602 36.604 58.602 36.964C58.602 37.684 58.75 38.246 59.046 38.65C59.346 39.05 59.8 39.25 60.408 39.25ZM65.6626 34.804C65.7946 34.656 65.9346 34.522 66.0826 34.402C66.2306 34.282 66.3866 34.18 66.5506 34.096C66.7186 34.008 66.8946 33.942 67.0786 33.898C67.2666 33.85 67.4686 33.826 67.6846 33.826C68.0166 33.826 68.3086 33.882 68.5606 33.994C68.8166 34.102 69.0286 34.258 69.1966 34.462C69.3686 34.662 69.4986 34.904 69.5866 35.188C69.6746 35.472 69.7186 35.786 69.7186 36.13V40H68.6446V36.13C68.6446 35.67 68.5386 35.314 68.3266 35.062C68.1186 34.806 67.8006 34.678 67.3726 34.678C67.0566 34.678 66.7606 34.754 66.4846 34.906C66.2126 35.058 65.9606 35.264 65.7286 35.524V40H64.6546V33.922H65.2966C65.4486 33.922 65.5426 33.996 65.5786 34.144L65.6626 34.804ZM75.8323 40H74.6683V31.402H75.8323V40ZM78.6938 34.804C78.8258 34.656 78.9658 34.522 79.1138 34.402C79.2618 34.282 79.4178 34.18 79.5818 34.096C79.7498 34.008 79.9258 33.942 80.1098 33.898C80.2978 33.85 80.4998 33.826 80.7158 33.826C81.0478 33.826 81.3398 33.882 81.5918 33.994C81.8478 34.102 82.0598 34.258 82.2278 34.462C82.3998 34.662 82.5298 34.904 82.6178 35.188C82.7058 35.472 82.7498 35.786 82.7498 36.13V40H81.6758V36.13C81.6758 35.67 81.5698 35.314 81.3578 35.062C81.1498 34.806 80.8318 34.678 80.4038 34.678C80.0878 34.678 79.7918 34.754 79.5158 34.906C79.2438 35.058 78.9918 35.264 78.7598 35.524V40H77.6858V33.922H78.3278C78.4798 33.922 78.5738 33.996 78.6098 34.144L78.6938 34.804ZM87.9173 34.924C87.8693 35.012 87.7953 35.056 87.6953 35.056C87.6353 35.056 87.5673 35.034 87.4913 34.99C87.4153 34.946 87.3213 34.898 87.2093 34.846C87.1013 34.79 86.9713 34.74 86.8193 34.696C86.6673 34.648 86.4873 34.624 86.2793 34.624C86.0993 34.624 85.9373 34.648 85.7933 34.696C85.6493 34.74 85.5253 34.802 85.4213 34.882C85.3213 34.962 85.2433 35.056 85.1873 35.164C85.1353 35.268 85.1093 35.382 85.1093 35.506C85.1093 35.662 85.1533 35.792 85.2413 35.896C85.3333 36 85.4533 36.09 85.6013 36.166C85.7493 36.242 85.9173 36.31 86.1053 36.37C86.2933 36.426 86.4853 36.488 86.6813 36.556C86.8813 36.62 87.0753 36.692 87.2633 36.772C87.4513 36.852 87.6193 36.952 87.7673 37.072C87.9153 37.192 88.0333 37.34 88.1213 37.516C88.2133 37.688 88.2593 37.896 88.2593 38.14C88.2593 38.42 88.2093 38.68 88.1093 38.92C88.0093 39.156 87.8613 39.362 87.6653 39.538C87.4693 39.71 87.2293 39.846 86.9453 39.946C86.6613 40.046 86.3333 40.096 85.9613 40.096C85.5373 40.096 85.1533 40.028 84.8093 39.892C84.4653 39.752 84.1733 39.574 83.9333 39.358L84.1853 38.95C84.2173 38.898 84.2553 38.858 84.2993 38.83C84.3433 38.802 84.3993 38.788 84.4673 38.788C84.5393 38.788 84.6153 38.816 84.6953 38.872C84.7753 38.928 84.8713 38.99 84.9833 39.058C85.0993 39.126 85.2393 39.188 85.4033 39.244C85.5673 39.3 85.7713 39.328 86.0153 39.328C86.2233 39.328 86.4053 39.302 86.5612 39.25C86.7173 39.194 86.8473 39.12 86.9513 39.028C87.0553 38.936 87.1313 38.83 87.1793 38.71C87.2313 38.59 87.2573 38.462 87.2573 38.326C87.2573 38.158 87.2113 38.02 87.1193 37.912C87.0313 37.8 86.9133 37.706 86.7653 37.63C86.6173 37.55 86.4473 37.482 86.2553 37.426C86.0673 37.366 85.8733 37.304 85.6733 37.24C85.4773 37.176 85.2833 37.104 85.0913 37.024C84.9033 36.94 84.7353 36.836 84.5873 36.712C84.4393 36.588 84.3193 36.436 84.2273 36.256C84.1393 36.072 84.0953 35.85 84.0953 35.59C84.0953 35.358 84.1433 35.136 84.2393 34.924C84.3353 34.708 84.4753 34.52 84.6593 34.36C84.8433 34.196 85.0693 34.066 85.3373 33.97C85.6053 33.874 85.9113 33.826 86.2553 33.826C86.6553 33.826 87.0133 33.89 87.3293 34.018C87.6493 34.142 87.9253 34.314 88.1573 34.534L87.9173 34.924ZM91.4347 40.096C90.9547 40.096 90.5847 39.962 90.3247 39.694C90.0687 39.426 89.9407 39.04 89.9407 38.536V34.816H89.2087C89.1447 34.816 89.0907 34.798 89.0467 34.762C89.0027 34.722 88.9807 34.662 88.9807 34.582V34.156L89.9767 34.03L90.2227 32.152C90.2347 32.092 90.2607 32.044 90.3007 32.008C90.3447 31.968 90.4007 31.948 90.4687 31.948H91.0087V34.042H92.7667V34.816H91.0087V38.464C91.0087 38.72 91.0707 38.91 91.1947 39.034C91.3187 39.158 91.4787 39.22 91.6747 39.22C91.7867 39.22 91.8827 39.206 91.9627 39.178C92.0467 39.146 92.1187 39.112 92.1787 39.076C92.2387 39.04 92.2887 39.008 92.3287 38.98C92.3727 38.948 92.4107 38.932 92.4427 38.932C92.4987 38.932 92.5487 38.966 92.5927 39.034L92.9047 39.544C92.7207 39.716 92.4987 39.852 92.2387 39.952C91.9787 40.048 91.7107 40.096 91.4347 40.096ZM97.1634 37.264C96.6714 37.28 96.2514 37.32 95.9034 37.384C95.5594 37.444 95.2774 37.524 95.0574 37.624C94.8414 37.724 94.6834 37.842 94.5834 37.978C94.4874 38.114 94.4394 38.266 94.4394 38.434C94.4394 38.594 94.4654 38.732 94.5174 38.848C94.5694 38.964 94.6394 39.06 94.7274 39.136C94.8194 39.208 94.9254 39.262 95.0454 39.298C95.1694 39.33 95.3014 39.346 95.4414 39.346C95.6294 39.346 95.8014 39.328 95.9574 39.292C96.1134 39.252 96.2594 39.196 96.3954 39.124C96.5354 39.052 96.6674 38.966 96.7914 38.866C96.9194 38.766 97.0434 38.652 97.1634 38.524V37.264ZM93.7134 34.78C94.0494 34.456 94.4114 34.214 94.7994 34.054C95.1874 33.894 95.6174 33.814 96.0894 33.814C96.4294 33.814 96.7314 33.87 96.9954 33.982C97.2594 34.094 97.4814 34.25 97.6614 34.45C97.8414 34.65 97.9774 34.892 98.0694 35.176C98.1614 35.46 98.2074 35.772 98.2074 36.112V40H97.7334C97.6294 40 97.5494 39.984 97.4934 39.952C97.4374 39.916 97.3934 39.848 97.3614 39.748L97.2414 39.172C97.0814 39.32 96.9254 39.452 96.7734 39.568C96.6214 39.68 96.4614 39.776 96.2934 39.856C96.1254 39.932 95.9454 39.99 95.7534 40.03C95.5654 40.074 95.3554 40.096 95.1234 40.096C94.8874 40.096 94.6654 40.064 94.4574 40C94.2494 39.932 94.0674 39.832 93.9114 39.7C93.7594 39.568 93.6374 39.402 93.5454 39.202C93.4574 38.998 93.4134 38.758 93.4134 38.482C93.4134 38.242 93.4794 38.012 93.6114 37.792C93.7434 37.568 93.9574 37.37 94.2534 37.198C94.5494 37.026 94.9354 36.886 95.4114 36.778C95.8874 36.666 96.4714 36.602 97.1634 36.586V36.112C97.1634 35.64 97.0614 35.284 96.8574 35.044C96.6534 34.8 96.3554 34.678 95.9634 34.678C95.6994 34.678 95.4774 34.712 95.2974 34.78C95.1214 34.844 94.9674 34.918 94.8354 35.002C94.7074 35.082 94.5954 35.156 94.4994 35.224C94.4074 35.288 94.3154 35.32 94.2234 35.32C94.1514 35.32 94.0894 35.302 94.0374 35.266C93.9854 35.226 93.9414 35.178 93.9054 35.122L93.7134 34.78ZM101.952 37.03C102.168 37.03 102.358 37 102.522 36.94C102.686 36.88 102.824 36.796 102.936 36.688C103.048 36.58 103.132 36.452 103.188 36.304C103.244 36.152 103.272 35.986 103.272 35.806C103.272 35.434 103.158 35.138 102.93 34.918C102.706 34.698 102.38 34.588 101.952 34.588C101.52 34.588 101.19 34.698 100.962 34.918C100.738 35.138 100.626 35.434 100.626 35.806C100.626 35.986 100.654 36.152 100.71 36.304C100.77 36.452 100.856 36.58 100.968 36.688C101.08 36.796 101.218 36.88 101.382 36.94C101.546 37 101.736 37.03 101.952 37.03ZM103.878 40.33C103.878 40.182 103.836 40.062 103.752 39.97C103.668 39.878 103.554 39.806 103.41 39.754C103.27 39.702 103.106 39.666 102.918 39.646C102.73 39.622 102.53 39.604 102.318 39.592C102.11 39.58 101.898 39.568 101.682 39.556C101.466 39.544 101.258 39.524 101.058 39.496C100.834 39.6 100.65 39.732 100.506 39.892C100.366 40.048 100.296 40.232 100.296 40.444C100.296 40.58 100.33 40.706 100.398 40.822C100.47 40.942 100.578 41.044 100.722 41.128C100.866 41.216 101.046 41.284 101.262 41.332C101.482 41.384 101.74 41.41 102.036 41.41C102.324 41.41 102.582 41.384 102.81 41.332C103.038 41.28 103.23 41.206 103.386 41.11C103.546 41.014 103.668 40.9 103.752 40.768C103.836 40.636 103.878 40.49 103.878 40.33ZM104.964 34.162V34.558C104.964 34.69 104.88 34.774 104.712 34.81L104.022 34.9C104.158 35.164 104.226 35.456 104.226 35.776C104.226 36.072 104.168 36.342 104.052 36.586C103.94 36.826 103.784 37.032 103.584 37.204C103.384 37.376 103.144 37.508 102.864 37.6C102.584 37.692 102.28 37.738 101.952 37.738C101.668 37.738 101.4 37.704 101.148 37.636C101.02 37.716 100.922 37.802 100.854 37.894C100.786 37.982 100.752 38.072 100.752 38.164C100.752 38.308 100.81 38.418 100.926 38.494C101.046 38.566 101.202 38.618 101.394 38.65C101.586 38.682 101.804 38.702 102.048 38.71C102.296 38.718 102.548 38.732 102.804 38.752C103.064 38.768 103.316 38.798 103.56 38.842C103.808 38.886 104.028 38.958 104.22 39.058C104.412 39.158 104.566 39.296 104.682 39.472C104.802 39.648 104.862 39.876 104.862 40.156C104.862 40.416 104.796 40.668 104.664 40.912C104.536 41.156 104.35 41.372 104.106 41.56C103.862 41.752 103.562 41.904 103.206 42.016C102.854 42.132 102.456 42.19 102.012 42.19C101.568 42.19 101.18 42.146 100.848 42.058C100.516 41.97 100.24 41.852 100.02 41.704C99.8003 41.556 99.6343 41.384 99.5223 41.188C99.4143 40.996 99.3603 40.794 99.3603 40.582C99.3603 40.282 99.4543 40.028 99.6423 39.82C99.8303 39.612 100.088 39.446 100.416 39.322C100.236 39.242 100.092 39.136 99.9843 39.004C99.8803 38.868 99.8283 38.686 99.8283 38.458C99.8283 38.37 99.8443 38.28 99.8763 38.188C99.9083 38.092 99.9563 37.998 100.02 37.906C100.088 37.81 100.17 37.72 100.266 37.636C100.362 37.552 100.474 37.478 100.602 37.414C100.302 37.246 100.068 37.024 99.9003 36.748C99.7323 36.468 99.6483 36.144 99.6483 35.776C99.6483 35.48 99.7043 35.212 99.8163 34.972C99.9323 34.728 100.092 34.522 100.296 34.354C100.5 34.182 100.742 34.05 101.022 33.958C101.306 33.866 101.616 33.82 101.952 33.82C102.216 33.82 102.462 33.85 102.69 33.91C102.918 33.966 103.126 34.05 103.314 34.162H104.964ZM107.083 35.14C107.275 34.724 107.511 34.4 107.791 34.168C108.071 33.932 108.413 33.814 108.817 33.814C108.945 33.814 109.067 33.828 109.183 33.856C109.303 33.884 109.409 33.928 109.501 33.988L109.423 34.786C109.399 34.886 109.339 34.936 109.243 34.936C109.187 34.936 109.105 34.924 108.997 34.9C108.889 34.876 108.767 34.864 108.631 34.864C108.439 34.864 108.267 34.892 108.115 34.948C107.967 35.004 107.833 35.088 107.713 35.2C107.597 35.308 107.491 35.444 107.395 35.608C107.303 35.768 107.219 35.952 107.143 36.16V40H106.069V33.922H106.681C106.797 33.922 106.877 33.944 106.921 33.988C106.965 34.032 106.995 34.108 107.011 34.216L107.083 35.14ZM113.64 37.264C113.148 37.28 112.728 37.32 112.38 37.384C112.036 37.444 111.754 37.524 111.534 37.624C111.318 37.724 111.16 37.842 111.06 37.978C110.964 38.114 110.916 38.266 110.916 38.434C110.916 38.594 110.942 38.732 110.994 38.848C111.046 38.964 111.116 39.06 111.204 39.136C111.296 39.208 111.402 39.262 111.522 39.298C111.646 39.33 111.778 39.346 111.918 39.346C112.106 39.346 112.278 39.328 112.434 39.292C112.59 39.252 112.736 39.196 112.872 39.124C113.012 39.052 113.144 38.966 113.268 38.866C113.396 38.766 113.52 38.652 113.64 38.524V37.264ZM110.19 34.78C110.526 34.456 110.888 34.214 111.276 34.054C111.664 33.894 112.094 33.814 112.566 33.814C112.906 33.814 113.208 33.87 113.472 33.982C113.736 34.094 113.958 34.25 114.138 34.45C114.318 34.65 114.454 34.892 114.546 35.176C114.638 35.46 114.684 35.772 114.684 36.112V40H114.21C114.106 40 114.026 39.984 113.97 39.952C113.914 39.916 113.87 39.848 113.838 39.748L113.718 39.172C113.558 39.32 113.402 39.452 113.25 39.568C113.098 39.68 112.938 39.776 112.77 39.856C112.602 39.932 112.422 39.99 112.23 40.03C112.042 40.074 111.832 40.096 111.6 40.096C111.364 40.096 111.142 40.064 110.934 40C110.726 39.932 110.544 39.832 110.388 39.7C110.236 39.568 110.114 39.402 110.022 39.202C109.934 38.998 109.89 38.758 109.89 38.482C109.89 38.242 109.956 38.012 110.088 37.792C110.22 37.568 110.434 37.37 110.73 37.198C111.026 37.026 111.412 36.886 111.888 36.778C112.364 36.666 112.948 36.602 113.64 36.586V36.112C113.64 35.64 113.538 35.284 113.334 35.044C113.13 34.8 112.832 34.678 112.44 34.678C112.176 34.678 111.954 34.712 111.774 34.78C111.598 34.844 111.444 34.918 111.312 35.002C111.184 35.082 111.072 35.156 110.976 35.224C110.884 35.288 110.792 35.32 110.7 35.32C110.628 35.32 110.566 35.302 110.514 35.266C110.462 35.226 110.418 35.178 110.382 35.122L110.19 34.78ZM116.311 40V33.922H116.953C117.105 33.922 117.199 33.996 117.235 34.144L117.313 34.768C117.537 34.492 117.789 34.266 118.069 34.09C118.349 33.914 118.673 33.826 119.041 33.826C119.449 33.826 119.779 33.94 120.031 34.168C120.287 34.396 120.471 34.704 120.583 35.092C120.671 34.872 120.783 34.682 120.919 34.522C121.059 34.362 121.215 34.23 121.387 34.126C121.559 34.022 121.741 33.946 121.933 33.898C122.129 33.85 122.327 33.826 122.527 33.826C122.847 33.826 123.131 33.878 123.379 33.982C123.631 34.082 123.843 34.23 124.015 34.426C124.191 34.622 124.325 34.864 124.417 35.152C124.509 35.436 124.555 35.762 124.555 36.13V40H123.481V36.13C123.481 35.654 123.377 35.294 123.169 35.05C122.961 34.802 122.661 34.678 122.269 34.678C122.093 34.678 121.925 34.71 121.765 34.774C121.609 34.834 121.471 34.924 121.351 35.044C121.231 35.164 121.135 35.316 121.063 35.5C120.995 35.68 120.961 35.89 120.961 36.13V40H119.887V36.13C119.887 35.642 119.789 35.278 119.593 35.038C119.397 34.798 119.111 34.678 118.735 34.678C118.471 34.678 118.227 34.75 118.003 34.894C117.779 35.034 117.573 35.226 117.385 35.47V40H116.311Z" fill="#8A8A8A"/>
<defs>
<linearGradient id="paint0_linear" x1="1.17346e-07" y1="50" x2="50" y2="1.17346e-07" gradientUnits="userSpaceOnUse">
<stop stop-color="#F09433"/>
<stop offset="0.28125" stop-color="#E6683C"/>
<stop offset="0.53125" stop-color="#DC2743"/>
<stop offset="0.765625" stop-color="#CC2366"/>
<stop offset="1" stop-color="#BC1888"/>
</linearGradient>
</defs>
</svg>